PathFileType	4	(X/Y/Z)	C:/Users/opensim2020/Desktop/walking_exp_matlab/subject01_walking09_straight_01.trc	
DataRate	CameraRate	NumFrames	NumMarkers	Units	OrigDataRate	OrigDataStartFrame	OrigNumFrames	
100.00	100.00	4	43	mm	100.00	893	485	
Frame#	Time	LFHD			RFHD			LBHD			RBHD			C7			T10			CLAV			STRN			RBAK			LSHO			LUPA			LELB			LFRM			LWRA			LWRB			LFIN			RSHO			RUPA			RELB			RFRM			RWRA			RWRB			RFIN			LASI			RASI			LPSI			RPSI			LTHI			LKNE			LTIB			LANK			LHEE			LTOE			RTHI			RKNE			RTIB			RANK			RHEE			RTOE			*39			*40			*41			*42			
		X1	Y1	Z1	X2	Y2	Z2	X3	Y3	Z3	X4	Y4	Z4	X5	Y5	Z5	X6	Y6	Z6	X7	Y7	Z7	X8	Y8	Z8	X9	Y9	Z9	X10	Y10	Z10	X11	Y11	Z11	X12	Y12	Z12	X13	Y13	Z13	X14	Y14	Z14	X15	Y15	Z15	X16	Y16	Z16	X17	Y17	Z17	X18	Y18	Z18	X19	Y19	Z19	X20	Y20	Z20	X21	Y21	Z21	X22	Y22	Z22	X23	Y23	Z23	X24	Y24	Z24	X25	Y25	Z25	X26	Y26	Z26	X27	Y27	Z27	X28	Y28	Z28	X29	Y29	Z29	X30	Y30	Z30	X31	Y31	Z31	X32	Y32	Z32	X33	Y33	Z33	X34	Y34	Z34	X35	Y35	Z35	X36	Y36	Z36	X37	Y37	Z37	X38	Y38	Z38	X39	Y39	Z39	X40	Y40	Z40	X41	Y41	Z41	X42	Y42	Z42	X43	Y43	Z43	

122	1.210	-1130.94507	-745.60388	1668.90161	-1018.39069	-739.30786	1681.70215	-1125.30225	-843.36365	1590.73010	-1005.11224	-838.47083	1601.55542	-1078.30212	-844.54645	1428.28735	-1057.10693	-888.36536	1136.62830	-1070.10608	-702.25897	1355.85266	-1070.19116	-664.77100	1198.51172	-996.41644	-906.09583	1237.91907	-1232.80969	-758.07776	1383.63623	-1312.95728	-771.60040	1198.06079	-1310.46509	-759.65045	1044.93225	-1327.58789	-681.73517	957.84784	-1308.60535	-561.80988	889.52960	-1323.94177	-610.95325	858.89764	-1336.67346	-541.31787	814.27789	-921.42102	-769.58374	1390.26624	-818.09082	-836.55194	1195.62354	-816.10059	-842.14563	1070.60254	-783.59668	-824.56079	952.30615	-798.09753	-752.95703	828.93671	-761.94452	-799.14307	833.96503	-759.81006	-768.18402	754.23199	-1158.24194	-721.80939	919.92603	-941.22791	-717.39801	932.52979	-1099.80872	-906.94666	940.57538	-954.59515	-901.93616	944.67407	-1198.59082	-789.49219	591.55151	-1181.91614	-819.36603	458.53058	-1184.60291	-897.75555	283.94370	-1126.27002	-951.40039	70.48831	-1071.57739	-998.35132	45.69132	-1128.75659	-805.24323	29.42431	-862.41742	-709.84021	607.33594	-888.70972	-652.21063	461.87302	-870.01361	-648.59326	289.47452	-904.44147	-595.53558	84.60861	-955.62415	-625.24500	30.11638	-902.02887	-450.13049	85.72604	-1042.13623	-759.82141	1708.80615	-3101.97046	1973.18103	1023.37177	-3140.74609	2012.55273	1022.14490			 
123	1.220	-1128.86865	-740.32898	1668.45654	-1016.07538	-733.23297	1681.24463	-1123.17334	-838.04321	1590.22937	-1002.96954	-832.97382	1600.98914	-1076.40662	-839.12402	1427.95288	-1055.37000	-882.65375	1136.11548	-1068.30823	-696.79547	1355.44153	-1068.78992	-659.25360	1198.08813	-994.78790	-900.39185	1237.25928	-1230.83862	-752.57227	1383.42053	-1311.40869	-765.84967	1198.00513	-1309.04956	-753.74670	1044.83118	-1325.82129	-675.35870	958.21240	-1306.88196	-555.06689	890.77533	-1322.09839	-603.73328	859.56555	-1334.86902	-533.78204	815.58209	-919.59528	-764.10999	1389.63623	-816.63434	-831.09717	1194.81848	-814.83325	-836.62012	1069.84033	-782.38245	-819.38025	951.51257	-796.64349	-747.73334	828.08673	-760.56946	-794.02032	833.15564	-758.43646	-762.70831	753.34277	-1157.33459	-716.29944	919.56561	-940.29260	-711.07031	931.95056	-1098.14575	-901.26660	940.09399	-952.91656	-895.74939	944.27716	-1197.86084	-785.52332	591.27136	-1181.43933	-816.00464	458.43863	-1184.30396	-895.60913	284.45966	-1126.28479	-951.14478	71.03973	-1071.65002	-998.35095	47.01034	-1128.60474	-805.23016	29.28054	-861.99408	-702.88013	606.75494	-888.38556	-645.87811	461.30087	-869.70251	-642.24573	288.76025	-904.32239	-588.90906	83.68511	-955.58203	-618.79614	29.30465	-902.22235	-443.65146	85.38238	-1039.97559	-754.54364	1708.14417	-3101.95020	1973.26794	1023.48566	-3140.66895	2012.46033	1021.99963			 
124	1.230	-1126.77710	-735.00940	1668.05286	-1013.95563	-727.78711	1680.70166	-1120.97754	-832.66797	1589.75354	-1000.76733	-827.43176	1600.40466	-1074.49133	-833.93896	1427.56677	-1053.62451	-876.94128	1135.55786	-1066.84814	-691.02649	1355.07214	-1067.32764	-653.56799	1197.66846	-993.10852	-894.69525	1236.55786	-1228.97510	-747.09192	1383.18945	-1309.78259	-760.04810	1197.94946	-1307.59644	-747.79962	1044.67273	-1324.15125	-668.88043	958.49390	-1304.92480	-548.01575	891.82648	-1320.53992	-596.68311	860.44513	-1332.90967	-526.40784	816.76526	-917.67798	-758.24817	1389.12646	-815.09320	-825.61176	1193.98608	-813.45184	-831.04468	1069.03931	-781.08722	-814.05664	950.68158	-795.08948	-742.41614	827.21423	-759.32007	-788.87799	832.29382	-757.13672	-758.16620	752.42102	-1156.34619	-710.83453	919.27405	-939.31250	-704.59497	931.44855	-1096.28406	-895.56226	939.68134	-951.18488	-888.97809	943.18414	-1197.20337	-781.36505	591.14545	-1180.97021	-812.47809	458.32047	-1184.00903	-893.37085	284.97342	-1126.36511	-950.62573	72.16516	-1071.66589	-998.09692	48.15566	-1128.81909	-805.17279	29.35351	-861.69519	-695.93951	606.13684	-887.85492	-639.48773	460.80133	-869.33472	-635.94006	287.72949	-904.55914	-583.72632	82.70670	-955.80927	-613.78943	28.44975	-902.43756	-438.43549	84.56927	-1037.80957	-749.05963	1707.76477	-3101.73755	1973.23083	1023.58057	-3140.72070	2012.57690	1021.99957			 
125	1.240	-1124.57068	-729.70300	1667.63721	-1011.83295	-722.38293	1680.17981	-1118.77258	-827.28467	1589.26904	-998.54370	-821.88147	1599.82910	-1072.40601	-828.22278	1427.01978	-1051.81152	-871.15497	1134.97913	-1064.35559	-685.56610	1354.62646	-1065.73938	-647.84491	1197.25696	-991.30322	-888.93854	1235.83655	-1226.99463	-741.58447	1382.97290	-1308.17090	-754.20911	1197.88354	-1305.99854	-741.90381	1044.55334	-1322.49182	-662.48639	958.75726	-1303.21863	-541.42090	892.95404	-1318.51990	-589.67725	861.01013	-1331.05457	-519.14966	817.89246	-915.46057	-753.30524	1388.31116	-813.47693	-820.05963	1193.10791	-812.04907	-825.50488	1068.18042	-779.64667	-808.60632	949.75977	-793.50623	-736.89441	826.39514	-758.05792	-783.96429	831.50873	-755.64093	-752.40320	751.56348	-1155.27490	-705.72992	919.03522	-938.19208	-698.11493	930.85260	-1094.33118	-889.76215	939.19373	-949.38245	-882.65735	942.52417	-1196.48169	-777.04382	591.13251	-1180.53589	-808.68311	458.25662	-1183.64612	-891.03265	285.57156	-1126.36755	-950.40082	72.87359	-1071.83093	-997.82080	49.51197	-1128.69324	-805.13910	29.22615	-861.33386	-689.38922	605.71198	-887.38873	-633.07739	460.14709	-869.24927	-630.38336	286.75092	-904.77631	-579.13434	81.44003	-956.13757	-609.67444	27.51338	-902.65570	-434.07132	83.05315	-1035.57739	-743.61420	1707.33325	-3101.50610	1973.21729	1023.66577	-3140.70630	2012.50769	1022.25000			 
